<svg width="476" height="146" viewBox="0 0 476 146" fill="none" xmlns="http://www.w3.org/2000/svg">
<path d="M57.1121 84.7904C55.0154 85.2085 53.5478 84.205 52.7091 81.7801C51.8705 79.2715 51.4092 75.5922 51.3254 70.7423C51.1577 63.6346 50.906 57.6976 50.5706 52.9313C50.319 48.0813 49.8158 43.7331 49.061 39.8866C41.2616 43.5659 33.546 46.9525 25.9143 50.0464C18.3664 53.0567 14.5925 54.5201 14.5925 54.4364L14.8441 81.1529C14.8441 82.4072 14.0893 83.2016 12.5797 83.5361C10.567 83.9542 9.22516 82.8253 8.5542 80.1495C7.96716 77.39 7.54785 73.0836 7.29626 67.2303C7.12854 61.9622 6.87695 58.2411 6.54144 56.067C4.19324 57.2377 2.18048 57.7812 0.503174 57.6976C0.167725 57.0286 0 55.6489 0 53.5584C0.670898 53.3076 1.46765 53.0149 2.39014 52.6804C3.39655 52.3459 4.10938 51.9696 4.52869 51.5515C5.03192 51.0498 5.28351 50.3391 5.28351 49.4193C5.28351 45.2383 4.8642 38.7995 4.02551 30.1031C3.10303 22.2428 2.64172 15.7623 2.64172 10.6615L2.76752 4.89175C3.01917 4.30643 3.31268 3.93011 3.64813 3.76288C4.06744 3.59564 4.61255 3.51202 5.28351 3.51202C6.70923 3.51202 7.42206 3.97192 7.42206 4.89175L12.5797 49.043C14.928 48.4576 18.8277 46.9525 24.2789 44.5275C29.7301 42.1025 38.1166 38.1724 49.4384 32.7371L49.9416 4.89175C49.9416 1.63058 51.1577 0 53.5897 0C54.5961 0 55.267 0.376282 55.6025 1.12888C56.0218 1.88144 56.1476 3.13574 55.9799 4.89175L55.8541 26.5911C55.8541 33.9496 56.2734 43.524 57.1121 55.3144C57.3636 57.6558 57.5733 59.9135 57.7411 62.0876C57.9926 64.1781 58.2023 66.185 58.37 68.1082C58.8732 73.2927 59.2087 76.5956 59.3764 78.0172C59.628 79.3551 60.0054 80.5676 60.5086 81.6546C60.0893 83.327 58.9571 84.3723 57.1121 84.7904Z" fill="#F44336"/>
<path d="M104.167 84.7904C95.4453 84.7904 87.8555 83.2852 81.3979 80.2749C75.0241 77.181 71.8372 71.7875 71.8372 64.0945C71.8372 61.3351 72.6759 58.6592 74.3532 56.067C76.0305 53.4748 78.5045 51.3843 81.7752 49.7955C85.046 48.1231 89.0296 47.2869 93.726 47.2869C97.3322 47.2869 100.393 47.4542 102.909 47.7887C105.425 48.1231 108.319 49.0429 111.589 50.5481C114.86 52.0533 118.257 54.4364 121.779 57.6976C120.437 51.9278 118.424 46.8688 115.741 42.5206C113.057 38.1724 110.038 34.8276 106.683 32.4863C103.412 30.0613 100.184 28.8488 96.9967 28.8488C95.4872 28.8488 94.0615 29.1414 92.7196 29.7268C91.4616 30.2285 89.9102 30.9811 88.0651 31.9845C85.9685 33.3224 84.417 33.9914 83.4106 33.9914C82.9913 33.9914 82.6139 33.866 82.2784 33.6151C82.0269 33.2806 81.901 32.9044 81.901 32.4863C81.901 29.1415 83.3687 26.5493 86.304 24.7096C89.3231 22.87 92.9712 22.0338 97.2483 22.201C103.119 22.5355 108.486 25.0441 113.35 29.7268C118.215 34.3259 122.03 40.0538 124.798 46.9106C127.649 53.7675 129.075 60.4988 129.075 67.1048C129.075 68.1919 128.991 69.7388 128.823 71.7457L124.798 71.4948C121.611 65.0561 117.502 60.4988 112.47 57.823C107.522 55.0636 102.532 53.6838 97.4999 53.6838C91.0423 53.6838 86.4297 54.6455 83.6622 56.5687C80.8947 58.492 79.5109 61.2932 79.5109 64.9725C79.5109 68.819 81.4398 71.9129 85.2976 74.2543C89.1554 76.5956 94.1034 77.7663 100.142 77.7663C103.496 77.7663 106.18 77.5991 108.193 77.2646C110.205 76.8465 112.302 76.303 114.483 75.634C116.244 75.0487 117.795 74.6306 119.137 74.3797C120.479 74.1289 122.198 74.0034 124.295 74.0034C126.643 74.0034 128.111 74.1707 128.698 74.5052C129.369 74.8396 129.704 75.5922 129.704 76.7629C129.704 77.5991 127.985 78.6443 124.546 79.8986C121.108 81.1529 117.25 82.2818 112.973 83.2852C108.696 84.2887 105.761 84.7904 104.167 84.7904Z" fill="#F44336"/>
<path d="M149.711 85.7938C149.879 85.7938 150.549 85.6266 151.724 85.2921C151.304 82.0309 150.591 78.4353 149.585 74.5052C148.662 70.4914 147.992 67.063 147.572 64.2199C147.153 61.3769 146.943 58.0321 146.943 54.1856C146.943 50.7571 147.782 47.705 149.459 45.0292C151.22 42.3534 153.485 40.2629 156.252 38.7577C159.104 37.2526 162.039 36.5 165.058 36.5C171.264 36.5 176.254 39.3013 180.028 44.9038C183.802 50.4227 185.689 58.5756 185.689 69.3625C185.689 73.6271 185.395 77.9754 184.808 82.4072C184.808 83.327 185.563 83.7869 187.073 83.7869C188.498 83.7869 189.631 82.6163 190.469 80.2749C191.308 77.8499 191.727 74.6306 191.727 70.6169C191.727 58.9101 189.672 49.1266 185.563 41.2663C181.454 33.3224 174.912 29.3505 165.939 29.3505C163.087 29.3505 160.278 29.9777 157.51 31.232C154.743 32.4863 152.311 34.0332 150.214 35.8729C148.117 37.7125 146.692 39.5103 145.937 41.2663C146.021 40.7646 146.063 40.1375 146.063 39.3849C146.063 36.6254 144.805 35.2457 142.289 35.2457C140.611 35.2457 139.773 35.8311 139.773 37.0017C139.773 44.3603 140.36 53.1403 141.534 63.3419C142.792 73.5435 144.805 80.693 147.572 84.7904C148.327 85.4593 149.04 85.7938 149.711 85.7938Z" fill="#F44336"/>
<path fill-rule="evenodd" clip-rule="evenodd" d="M222.946 146C215.901 146 209.988 143.993 205.208 139.979C200.512 136.049 197.702 129.401 196.78 120.036C196.696 118.615 196.905 117.527 197.409 116.775C197.996 116.022 198.751 115.646 199.673 115.646C200.679 115.646 201.56 116.022 202.315 116.775C203.07 117.611 203.405 118.698 203.321 120.036C203.321 125.555 205.208 129.903 208.982 133.081C212.84 136.342 217.746 137.973 223.7 137.973C227.139 137.973 230.158 136.718 232.758 134.21C235.441 131.701 237.496 128.189 238.922 123.674C240.348 119.242 241.06 114.141 241.06 108.371C241.06 103.759 241.087 99.2072 241.139 94.7165C139.796 99.4591 75.5379 112.979 50.6743 121.883C49.6344 122.255 48.4895 121.714 48.1171 120.674C47.7447 119.634 48.2858 118.49 49.3257 118.117C74.6743 109.039 139.423 95.4554 241.193 90.7097C241.253 86.7228 241.335 82.7846 241.438 78.8952L241.564 72.4983C238.293 75.9267 235.316 78.4353 232.632 80.024C230.032 81.6128 226.887 82.4072 223.197 82.4072C216.74 82.4072 211.959 80.693 208.856 77.2646C205.837 73.7526 204.328 68.4009 204.328 61.2096C204.328 57.1122 205.418 52.8477 207.598 48.4158C209.863 43.9003 212.924 40.1375 216.781 37.1271C220.723 34.1169 225.168 32.6117 230.116 32.6117C231.793 32.6117 233.345 32.7789 234.771 33.1134C240.138 34.2841 243.744 39.2595 245.589 48.0395C247.434 56.8196 248.357 68.1919 248.357 82.1563C248.357 84.4551 248.327 87.2019 248.267 90.3967C300.056 88.2281 361.105 88.3506 431.117 92.4375C432.219 92.5019 433.061 93.448 432.997 94.5507C432.932 95.6534 431.986 96.4951 430.883 96.4307C360.862 92.3433 299.864 92.2308 248.182 94.4037C248.158 95.3877 248.133 96.406 248.105 97.4588L247.979 109.375C247.979 114.141 247.224 119.325 245.715 124.928C244.205 130.614 241.564 135.548 237.79 139.729C234.016 143.91 229.068 146 222.946 146ZM221.31 74.1289C227.516 74.1289 232.213 72.6655 235.4 69.7388C238.586 66.7285 240.18 62.3385 240.18 56.5687C240.18 55.8162 240.096 54.5201 239.928 52.6804C239.509 48.8339 238.503 45.8236 236.909 43.6495C235.4 41.3918 233.009 40.2629 229.739 40.2629C226.3 40.2629 223.155 41.4754 220.304 43.9003C217.452 46.3253 215.23 49.3356 213.637 52.9313C212.043 56.4433 211.246 59.7463 211.246 62.8402C211.246 65.9341 212.169 68.61 214.014 70.8677C215.859 73.0418 218.291 74.1289 221.31 74.1289Z" fill="#F44336"/>
<path d="M337.823 83.9124C338.075 84.5813 338.83 84.9158 340.088 84.9158C342.604 84.9158 344.197 82.9926 344.868 79.1461C345.623 75.2995 346 71.2858 346 67.1048C346 62.4221 345.161 57.3213 343.484 51.8024C341.891 46.2835 339.333 41.559 335.81 37.6289C332.372 33.6987 328.053 31.7337 322.853 31.7337C317.821 31.7337 312.915 33.2388 308.135 36.2491C303.439 39.2595 299.916 42.8969 297.568 47.1615C295.052 42.9805 292.243 39.9702 289.14 38.1306C286.12 36.2073 282.305 35.2457 277.692 35.2457C275.008 35.2457 272.45 36.1237 270.018 37.8797C267.586 39.6357 265.741 41.6008 264.483 43.7749C264.483 41.5172 264.148 39.8448 263.477 38.7577C262.89 37.5871 262.135 37.0017 261.213 37.0017C260.542 37.0017 259.955 37.2526 259.451 37.7543L259.326 41.8935C259.158 45.4055 259.2 48.9175 259.451 52.4296C259.703 55.858 259.871 57.9903 259.955 58.8264C260.458 65.3488 260.709 70.9095 260.709 75.5086C260.709 77.8499 261.045 79.606 261.716 80.7766C262.387 81.8637 263.561 82.4072 265.238 82.4072C266.496 82.4072 267.293 82.0309 267.628 81.2784C267.964 80.5258 268.131 79.3969 268.131 77.8918C268.131 75.3831 267.922 72.3729 267.502 68.8608C266.999 64.1781 266.748 60.4152 266.748 57.5722C266.748 53.3076 267.922 49.7119 270.27 46.7852C272.702 43.8585 276.057 42.3952 280.334 42.3952C283.437 42.3952 285.995 43.4404 288.007 45.5309C290.02 47.6214 291.614 50.13 292.788 53.0567C293.962 55.9834 295.178 59.7045 296.436 64.2199C297.694 68.819 298.826 72.2056 299.832 74.3797C300.923 76.5538 302.306 77.6409 303.984 77.6409C305.326 77.6409 305.996 76.9719 305.996 75.634L305.871 73.2509C305.871 71.4948 305.535 69.5298 304.864 67.3557C304.277 65.1815 303.942 63.8854 303.858 63.4673C302.768 59.9553 302.013 56.9868 301.594 54.5619C301.594 52.6386 302.558 50.5063 304.487 48.1649C306.5 45.8236 309.058 43.8585 312.161 42.2697C315.347 40.681 318.534 39.8866 321.721 39.8866C327.508 39.8866 331.743 42.1443 334.427 46.6598C337.11 51.0916 338.452 57.2795 338.452 65.2234C338.452 68.819 338.201 72.6237 337.697 76.6375C337.614 77.0555 337.572 77.6827 337.572 78.5189C337.572 79.2715 337.53 79.9404 337.446 80.5258C337.446 82.0309 337.572 83.1598 337.823 83.9124Z" fill="#F44336"/>
<path d="M388.44 84.7904C379.718 84.7904 372.128 83.2852 365.671 80.2749C359.297 77.181 356.11 71.7875 356.11 64.0945C356.11 61.3351 356.949 58.6592 358.626 56.067C360.303 53.4748 362.777 51.3843 366.048 49.7955C369.319 48.1231 373.302 47.2869 377.999 47.2869C381.605 47.2869 384.666 47.4542 387.182 47.7887C389.698 48.1231 392.591 49.0429 395.862 50.5481C399.133 52.0533 402.529 54.4364 406.052 57.6976C404.71 51.9278 402.697 46.8688 400.013 42.5206C397.33 38.1724 394.311 34.8276 390.956 32.4863C387.685 30.0613 384.456 28.8488 381.27 28.8488C379.76 28.8488 378.334 29.1414 376.992 29.7268C375.734 30.2285 374.183 30.9811 372.338 31.9845C370.241 33.3224 368.69 33.9914 367.683 33.9914C367.264 33.9914 366.887 33.866 366.551 33.6151C366.3 33.2806 366.174 32.9044 366.174 32.4863C366.174 29.1415 367.641 26.5493 370.577 24.7096C373.596 22.87 377.244 22.0338 381.521 22.201C387.392 22.5355 392.759 25.0441 397.623 29.7268C402.487 34.3259 406.303 40.0538 409.071 46.9106C411.922 53.7675 413.348 60.4988 413.348 67.1048C413.348 68.1919 413.264 69.7388 413.096 71.7457L409.071 71.4948C405.884 65.0561 401.775 60.4988 396.743 57.823C391.795 55.0636 386.805 53.6838 381.773 53.6838C375.315 53.6838 370.703 54.6455 367.935 56.5687C365.168 58.492 363.784 61.2932 363.784 64.9725C363.784 68.819 365.713 71.9129 369.57 74.2543C373.428 76.5956 378.376 77.7663 384.414 77.7663C387.769 77.7663 390.453 77.5991 392.466 77.2646C394.478 76.8465 396.575 76.303 398.755 75.634C400.517 75.0487 402.068 74.6306 403.41 74.3797C404.752 74.1289 406.471 74.0034 408.568 74.0034C410.916 74.0034 412.383 74.1707 412.971 74.5052C413.641 74.8396 413.977 75.5922 413.977 76.7629C413.977 77.5991 412.258 78.6443 408.819 79.8986C405.381 81.1529 401.523 82.2818 397.246 83.2852C392.969 84.2887 390.033 84.7904 388.44 84.7904Z" fill="#F44336"/>
<path d="M433.984 85.7938C434.151 85.7938 434.822 85.6266 435.996 85.2921C435.577 82.0309 434.864 78.4353 433.858 74.5052C432.935 70.4914 432.264 67.063 431.845 64.2199C431.426 61.3769 431.216 58.0321 431.216 54.1856C431.216 50.7571 432.055 47.705 433.732 45.0292C435.493 42.3534 437.758 40.2629 440.525 38.7577C443.377 37.2526 446.312 36.5 449.331 36.5C455.537 36.5 460.527 39.3013 464.301 44.9038C468.075 50.4227 469.962 58.5756 469.962 69.3625C469.962 73.6271 469.668 77.9754 469.081 82.4072C469.081 83.327 469.836 83.7869 471.345 83.7869C472.771 83.7869 473.903 82.6163 474.742 80.2749C475.581 77.8499 476 74.6306 476 70.6169C476 58.9101 473.945 49.1266 469.836 41.2663C465.727 33.3224 459.185 29.3505 450.211 29.3505C447.36 29.3505 444.551 29.9777 441.783 31.232C439.016 32.4863 436.583 34.0332 434.487 35.8729C432.39 37.7125 430.965 39.5103 430.21 41.2663C430.294 40.7646 430.336 40.1375 430.336 39.3849C430.336 36.6254 429.078 35.2457 426.562 35.2457C424.884 35.2457 424.046 35.8311 424.046 37.0017C424.046 44.3603 424.633 53.1403 425.807 63.3419C427.065 73.5435 429.078 80.693 431.845 84.7904C432.6 85.4593 433.313 85.7938 433.984 85.7938Z" fill="#F44336"/>
</svg>
